<?xml version="1.0" encoding="UTF-8"?><svg id="Layer_1" xmlns="http://www.w3.org/2000/svg" viewBox="0 0 360 360"><defs><style>.cls-1{fill:#fff;}.cls-2{fill:#e17284;}</style></defs><circle class="cls-1" cx="180" cy="180" r="165.61"/><path class="cls-2" d="m90.94,156.13c0,6.84-5.99,10.61-16.38,10.61-5.52,0-9.63-.56-12.11-1.33v-31.44h15.96c6.42,0,10.01,3.21,10.01,8,0,2.65-1.63,5.18-3.59,6.25,3.17.81,6.12,3.51,6.12,7.91Zm-14.59-14.89h-4.66v5.05h4.75c2.01,0,2.87-1.15,2.87-2.52s-.86-2.52-2.95-2.52Zm4.92,14.72c0-1.67-.94-2.82-3.34-2.82h-6.25v5.9c.86.26,2.61.34,4.24.34,3.68,0,5.35-1.41,5.35-3.42Z"/><path class="cls-2" d="m114.08,156.82h-13.05c.6,2.4,2.35,3.04,5.77,3.04,2.82,0,5.18-.73,6.5-1.5v6.59c-1.58,1.07-4.92,1.8-7.96,1.8-7.7,0-12.28-4.32-12.28-11.59,0-6.67,4.36-11.29,11.17-11.29,6.29,0,10.18,4.06,10.18,9.97,0,1.33-.17,2.31-.34,2.99Zm-13.26-3.21h6.67v-.13c0-1.92-1.2-3.04-3.21-3.04s-3.21,1.15-3.46,3.17Z"/><path class="cls-2" d="m149.46,155.4c0,6.5-3.89,11.34-9.33,11.34-2.61,0-4.49-1.11-5.69-3.25v11.34h-8.21v-30.29h7.87v3.38c1.16-2.61,3.12-4.06,6.03-4.06,5.43,0,9.33,4.79,9.33,11.55Zm-8.34-.04c0-2.35-1.54-3.94-3.59-3.94s-3.64,1.58-3.64,3.94,1.5,3.89,3.64,3.89,3.59-1.58,3.59-3.89Z"/><path class="cls-2" d="m167.34,144.11v7.83c-.47-.26-1.24-.43-2.27-.43-2.14,0-3.76,1.28-3.76,4.02v10.52h-8.56v-21.52h7.87v5.65c.81-4.11,2.82-6.33,5.18-6.33.68,0,1.24.13,1.54.26Z"/><path class="cls-2" d="m169.26,155.19c0-6.46,5.01-11.34,11.98-11.34s11.85,4.92,11.85,11.34-5,11.55-11.85,11.55-11.98-4.83-11.98-11.55Zm15.7.04c0-2.35-1.63-3.94-3.72-3.94s-3.72,1.58-3.72,3.94,1.54,3.89,3.72,3.89,3.72-1.58,3.72-3.89Z"/><path class="cls-2" d="m196.21,155.96v-11.42h8.56v12.15c0,1.71.86,2.87,2.48,2.87s2.44-1.15,2.44-2.87v-12.15h8.56v11.42c0,6.85-4.02,10.78-10.99,10.78s-11.04-3.94-11.04-10.78Z"/><path class="cls-2" d="m244.42,133.97v32.08h-7.87v-3.34c-1.16,2.61-3.08,4.02-5.95,4.02-5.39,0-9.28-4.79-9.28-11.34s3.89-11.55,9.28-11.55c2.61,0,4.45,1.11,5.6,3.17v-13.05h8.21Zm-7.66,21.26c0-2.35-1.45-3.89-3.55-3.89s-3.55,1.58-3.55,3.89,1.5,3.94,3.55,3.94,3.55-1.58,3.55-3.94Z"/><path class="cls-2" d="m256.14,155.19c0-6.46,5.01-11.34,11.98-11.34s11.85,4.92,11.85,11.34-5.01,11.55-11.85,11.55-11.98-4.83-11.98-11.55Zm15.7.04c0-2.35-1.63-3.94-3.72-3.94s-3.72,1.58-3.72,3.94,1.54,3.89,3.72,3.89,3.72-1.58,3.72-3.89Z"/><path class="cls-2" d="m293.4,142.91v1.63h4.11v6.72h-4.11v13.52c0,6.46-3.08,10.48-8.77,10.48-1.37,0-2.65-.26-3.38-.56v-7.53c.39.13.81.21,1.28.21,1.75,0,2.22-1.2,2.22-2.99v-13.13h-2.78v-6.72h2.78v-1.97c0-5.82,3.29-9.15,9.33-9.15,1.63,0,2.7.13,3.47.34v6.55c-.34-.09-.81-.17-1.45-.17-1.88,0-2.7,1.03-2.7,2.78Z"/><path class="cls-2" d="m85.81,202.59v5.05c0,1.45.77,2.35,2.27,2.35.6,0,1.16-.13,1.54-.26v7.61c-.68.39-2.18.73-3.81.73-5.52,0-8.86-3.59-8.86-9.58v-5.9h-2.69v-6.72h2.69v-6.12h8.86v6.12h3.81v6.72h-3.81Z"/><path class="cls-2" d="m115.41,203.1v14.29h-8.56v-11.89c0-2.01-.9-3.29-2.44-3.29-1.67,0-2.65,1.37-2.65,3.42v11.76h-8.56v-32.08h8.04v14.8c1.2-2.99,3.81-4.92,7.14-4.92,4.11,0,7.02,2.91,7.02,7.91Z"/><path class="cls-2" d="m139.49,208.15h-13.05c.6,2.4,2.35,3.04,5.77,3.04,2.82,0,5.18-.73,6.5-1.5v6.59c-1.58,1.07-4.92,1.8-7.96,1.8-7.7,0-12.28-4.32-12.28-11.59,0-6.67,4.36-11.29,11.17-11.29,6.29,0,10.18,4.06,10.18,9.97,0,1.33-.17,2.31-.34,2.99Zm-13.26-3.21h6.67v-.13c0-1.92-1.2-3.04-3.21-3.04s-3.21,1.15-3.47,3.17Z"/><path class="cls-2" d="m142.87,189.32c0-2.74,2.01-4.36,4.62-4.36s4.66,1.63,4.66,4.36-1.97,4.32-4.66,4.32-4.62-1.5-4.62-4.32Zm.34,6.55h8.56v21.52h-8.56v-21.52Z"/><path class="cls-2" d="m170.68,195.44v7.83c-.47-.26-1.24-.43-2.27-.43-2.14,0-3.76,1.28-3.76,4.02v10.52h-8.56v-21.52h7.87v5.65c.81-4.11,2.82-6.33,5.18-6.33.68,0,1.24.13,1.54.26Z"/><path class="cls-2" d="m205.2,206.14c0,6.93-4.75,11.93-11.85,11.93s-11.55-4.83-11.55-12.41v-20.36h8.09v13.13c1.11-2.05,3.17-3.25,5.9-3.25,5.26,0,9.41,4.53,9.41,10.95Zm-8,.43c0-2.35-1.45-3.89-3.64-3.89s-3.64,1.54-3.64,3.89,1.54,3.94,3.64,3.94,3.64-1.58,3.64-3.94Z"/><path class="cls-2" d="m207.5,206.52c0-6.46,5-11.34,11.98-11.34s11.85,4.92,11.85,11.34-5.01,11.55-11.85,11.55-11.98-4.83-11.98-11.55Zm15.7.04c0-2.35-1.63-3.94-3.72-3.94s-3.72,1.58-3.72,3.94,1.54,3.89,3.72,3.89,3.72-1.58,3.72-3.89Z"/><path class="cls-2" d="m256.78,185.3v32.08h-7.87v-3.34c-1.16,2.61-3.08,4.02-5.95,4.02-5.39,0-9.28-4.79-9.28-11.34s3.89-11.55,9.28-11.55c2.61,0,4.45,1.11,5.6,3.17v-13.05h8.21Zm-7.66,21.26c0-2.35-1.45-3.89-3.55-3.89s-3.55,1.58-3.55,3.89,1.5,3.94,3.55,3.94,3.55-1.58,3.55-3.94Z"/><path class="cls-2" d="m282.96,195.87l-7.19,23.23c-1.5,5.01-4.28,7.49-9.5,7.49-2.05,0-3.76-.6-4.71-1.33v-7.27c.81.56,2.18,1.15,3.68,1.15,1.03,0,1.84-.17,2.52-.47l-8.17-22.8h8.94l2.91,12.96,2.91-12.96h8.6Z"/></svg>