<?xml version="1.0" encoding="UTF-8"?><svg id="Layer_1" xmlns="http://www.w3.org/2000/svg" viewBox="0 0 360 360"><defs><style>.cls-1{fill:#fff;}.cls-2{fill:#e17284;}</style></defs><circle class="cls-1" cx="180" cy="180" r="165.61"/><path class="cls-2" d="m143.75,157.82v8.13h-18.01v-32.08h9.8v23.96h8.21Z"/><path class="cls-2" d="m146.87,137.89c0-2.74,2.01-4.36,4.62-4.36s4.66,1.63,4.66,4.36-1.97,4.32-4.66,4.32-4.62-1.5-4.62-4.32Zm.34,6.55h8.56v21.52h-8.56v-21.52Z"/><path class="cls-2" d="m180.45,144.43l-10.74,21.99h-.98l-10.74-21.99h8.3l2.91,7.83,2.99-7.83h8.26Z"/><path class="cls-2" d="m201.03,156.71h-13.05c.6,2.4,2.35,3.04,5.77,3.04,2.82,0,5.18-.73,6.5-1.5v6.59c-1.58,1.07-4.92,1.8-7.96,1.8-7.7,0-12.28-4.32-12.28-11.59,0-6.67,4.36-11.29,11.17-11.29,6.29,0,10.18,4.06,10.18,9.97,0,1.33-.17,2.31-.34,2.99Zm-13.26-3.21h6.67v-.13c0-1.92-1.2-3.04-3.21-3.04s-3.21,1.15-3.46,3.17Z"/><path class="cls-2" d="m235.16,159.49v6.16c-.56.43-2.48.98-4.02.98-3.29,0-5.13-1.5-5.35-3.85-.26.51-.6,1.03-1.07,1.5-1.37,1.37-3.59,2.35-6.37,2.35-3.81,0-6.25-2.22-6.25-5.65,0-1.54.64-2.91,1.41-3.72,1.15-1.24,2.91-1.84,5.13-2.31,2.57-.56,5.18-.68,6.2-1.45.26-.21.38-.43.38-.77,0-.6-.64-1.15-2.78-1.15-3.34,0-6.72,1.28-9.2,2.65v-7.96c1.84-1.11,5.99-2.52,9.8-2.52,7.14,0,10.35,3.12,10.35,7.91v6.97c0,.69.39,1.07.94,1.07.43,0,.68-.13.81-.21Zm-9.28-2.44v-.3c-.56.51-1.24.73-2.14.98-1.15.3-2.1.56-2.65,1.11-.26.26-.47.64-.47,1.11,0,.81.6,1.54,1.75,1.54.98,0,1.71-.34,2.27-.9.81-.81,1.24-2.01,1.24-3.55Z"/><path class="cls-2" d="m92.01,202.99v14.29h-8.56v-11.89c0-2.01-.86-3.29-2.44-3.29-1.67,0-2.65,1.37-2.65,3.42v11.76h-8.56v-21.52h8.04v4.36c1.15-3.08,3.81-5.05,7.14-5.05,4.11,0,7.02,2.91,7.02,7.91Z"/><path class="cls-2" d="m95.09,206.41c0-6.46,5.01-11.34,11.98-11.34s11.85,4.92,11.85,11.34-5,11.55-11.85,11.55-11.98-4.83-11.98-11.55Zm15.7.04c0-2.35-1.63-3.94-3.72-3.94s-3.72,1.58-3.72,3.94,1.54,3.89,3.72,3.89,3.72-1.58,3.72-3.89Z"/><path class="cls-2" d="m136.84,195.33v7.83c-.47-.26-1.24-.43-2.27-.43-2.14,0-3.76,1.28-3.76,4.02v10.52h-8.56v-21.52h7.87v5.65c.81-4.11,2.82-6.33,5.18-6.33.69,0,1.24.13,1.54.26Z"/><path class="cls-2" d="m175.42,202.99v14.29h-8.56v-11.94c0-1.97-.69-3.25-2.27-3.25s-2.52,1.33-2.52,3.42v11.76h-8.56v-11.94c0-1.97-.64-3.25-2.27-3.25s-2.52,1.33-2.52,3.42v11.76h-8.56v-21.52h8.04v4.32c1.16-3.04,3.76-5,7.02-5,3.08,0,5.52,1.75,6.42,4.88,1.2-2.57,3.51-4.88,6.93-4.88,3.94,0,6.84,2.91,6.84,7.91Z"/><path class="cls-2" d="m201.47,210.82v6.16c-.56.43-2.48.98-4.02.98-3.29,0-5.13-1.5-5.35-3.85-.26.51-.6,1.03-1.07,1.5-1.37,1.37-3.59,2.35-6.37,2.35-3.81,0-6.25-2.22-6.25-5.65,0-1.54.64-2.91,1.41-3.72,1.16-1.24,2.91-1.84,5.13-2.31,2.57-.56,5.18-.68,6.2-1.45.26-.21.39-.43.39-.77,0-.6-.64-1.15-2.78-1.15-3.34,0-6.72,1.28-9.2,2.65v-7.96c1.84-1.11,5.99-2.52,9.8-2.52,7.14,0,10.35,3.12,10.35,7.91v6.97c0,.69.39,1.07.94,1.07.43,0,.68-.13.81-.21Zm-9.28-2.44v-.3c-.56.51-1.24.73-2.14.98-1.16.3-2.1.56-2.65,1.11-.26.26-.47.64-.47,1.11,0,.81.6,1.54,1.75,1.54.98,0,1.71-.34,2.27-.9.81-.81,1.24-2.01,1.24-3.55Z"/><path class="cls-2" d="m204.47,211.46v-26.27h8.56v24.81c0,.73.34,1.11.9,1.11.38,0,.73-.13.86-.26v6.07c-.69.51-2.44,1.03-3.72,1.03-4.32,0-6.59-2.27-6.59-6.5Z"/><path class="cls-2" d="m226.58,211.46v-26.27h8.56v24.81c0,.73.34,1.11.9,1.11.39,0,.73-.13.86-.26v6.07c-.68.51-2.44,1.03-3.72,1.03-4.32,0-6.59-2.27-6.59-6.5Z"/><path class="cls-2" d="m239.93,189.22c0-2.74,2.01-4.36,4.62-4.36s4.66,1.63,4.66,4.36-1.97,4.32-4.66,4.32-4.62-1.5-4.62-4.32Zm.34,6.55h8.56v21.52h-8.56v-21.52Z"/><path class="cls-2" d="m263.24,194.14v1.63h4.11v6.72h-4.11v13.52c0,6.46-3.08,10.48-8.77,10.48-1.37,0-2.65-.26-3.38-.56v-7.53c.39.13.81.21,1.28.21,1.75,0,2.22-1.2,2.22-2.99v-13.13h-2.78v-6.72h2.78v-1.97c0-5.82,3.29-9.15,9.33-9.15,1.63,0,2.7.13,3.47.34v6.55c-.34-.09-.81-.17-1.45-.17-1.88,0-2.7,1.03-2.7,2.78Z"/><path class="cls-2" d="m289.85,208.04h-13.05c.6,2.4,2.35,3.04,5.78,3.04,2.82,0,5.18-.73,6.5-1.5v6.59c-1.58,1.07-4.92,1.8-7.96,1.8-7.7,0-12.28-4.32-12.28-11.59,0-6.67,4.36-11.29,11.17-11.29,6.29,0,10.18,4.06,10.18,9.97,0,1.33-.17,2.31-.34,2.99Zm-13.26-3.21h6.67v-.13c0-1.92-1.2-3.04-3.21-3.04s-3.21,1.15-3.47,3.17Z"/></svg>