<?xml version="1.0" encoding="UTF-8"?><svg id="Layer_1" xmlns="http://www.w3.org/2000/svg" viewBox="0 0 360 360"><defs><style>.cls-1{fill:#fff;}.cls-2{fill:#e17284;}</style></defs><circle class="cls-1" cx="180" cy="180" r="165.61"/><path class="cls-2" d="m116.22,131.98v8.13h-22.37v-32.08h22.2v8.13h-13.09v3.89h12.32v7.36h-12.32v4.58h13.26Z"/><path class="cls-2" d="m155.75,125.82v14.29h-8.56v-11.94c0-1.97-.68-3.25-2.27-3.25s-2.52,1.33-2.52,3.42v11.76h-8.56v-11.94c0-1.97-.64-3.25-2.27-3.25s-2.52,1.33-2.52,3.42v11.76h-8.56v-21.52h8.04v4.32c1.16-3.04,3.76-5,7.02-5,3.08,0,5.52,1.75,6.42,4.88,1.2-2.57,3.51-4.88,6.93-4.88,3.94,0,6.85,2.91,6.85,7.91Z"/><path class="cls-2" d="m182.87,128.86c0,6.93-4.75,11.93-11.85,11.93s-11.55-4.83-11.55-12.41v-20.36h8.08v13.13c1.11-2.05,3.17-3.25,5.9-3.25,5.26,0,9.41,4.53,9.41,10.95Zm-8,.43c0-2.35-1.45-3.89-3.64-3.89s-3.64,1.54-3.64,3.89,1.54,3.94,3.64,3.94,3.64-1.58,3.64-3.94Z"/><path class="cls-2" d="m200.75,118.17v7.83c-.47-.26-1.24-.43-2.27-.43-2.14,0-3.76,1.28-3.76,4.02v10.52h-8.56v-21.52h7.87v5.65c.81-4.11,2.82-6.33,5.18-6.33.69,0,1.24.13,1.54.26Z"/><path class="cls-2" d="m225.64,133.65v6.16c-.56.43-2.48.98-4.02.98-3.29,0-5.13-1.5-5.35-3.85-.26.51-.6,1.03-1.07,1.5-1.37,1.37-3.59,2.35-6.37,2.35-3.81,0-6.25-2.22-6.25-5.65,0-1.54.64-2.91,1.41-3.72,1.15-1.24,2.91-1.84,5.13-2.31,2.57-.56,5.18-.68,6.2-1.45.26-.21.38-.43.38-.77,0-.6-.64-1.15-2.78-1.15-3.34,0-6.72,1.28-9.2,2.65v-7.96c1.84-1.11,5.99-2.52,9.8-2.52,7.14,0,10.35,3.12,10.35,7.91v6.97c0,.69.39,1.07.94,1.07.43,0,.68-.13.81-.21Zm-9.28-2.44v-.3c-.56.51-1.24.73-2.14.98-1.15.3-2.1.56-2.65,1.11-.26.26-.47.64-.47,1.11,0,.81.6,1.54,1.75,1.54.98,0,1.71-.34,2.27-.9.81-.81,1.24-2.01,1.24-3.55Z"/><path class="cls-2" d="m227.65,129.33c0-6.42,4.41-11.42,11.51-11.42,1.92,0,3.55.34,4.71.9l-.09,7.66c-.68-.43-1.54-.9-3.08-.9-2.82,0-4.19,1.67-4.19,3.76,0,2.27,1.41,3.81,4.19,3.81,1.5,0,2.4-.47,3.08-.86l.09,7.57c-1.07.51-2.91.94-4.83.94-7.06,0-11.38-5.01-11.38-11.46Z"/><path class="cls-2" d="m267.26,130.87h-13.05c.6,2.4,2.35,3.04,5.78,3.04,2.82,0,5.18-.73,6.5-1.5v6.59c-1.58,1.07-4.92,1.8-7.96,1.8-7.7,0-12.28-4.32-12.28-11.59,0-6.67,4.36-11.29,11.17-11.29,6.29,0,10.18,4.06,10.18,9.97,0,1.33-.17,2.31-.34,2.99Zm-13.26-3.21h6.67v-.13c0-1.92-1.2-3.04-3.21-3.04s-3.21,1.15-3.47,3.17Z"/><path class="cls-2" d="m143.06,176.64v5.05c0,1.45.77,2.35,2.27,2.35.6,0,1.16-.13,1.54-.26v7.61c-.68.39-2.18.73-3.81.73-5.52,0-8.86-3.59-8.86-9.58v-5.9h-2.7v-6.72h2.7v-6.12h8.86v6.12h3.81v6.72h-3.81Z"/><path class="cls-2" d="m172.66,177.15v14.29h-8.56v-11.89c0-2.01-.9-3.29-2.44-3.29-1.67,0-2.65,1.37-2.65,3.42v11.76h-8.56v-32.08h8.04v14.8c1.2-2.99,3.81-4.92,7.14-4.92,4.11,0,7.02,2.91,7.02,7.91Z"/><path class="cls-2" d="m196.75,182.2h-13.05c.6,2.4,2.35,3.04,5.77,3.04,2.82,0,5.18-.73,6.5-1.5v6.59c-1.58,1.07-4.92,1.8-7.96,1.8-7.7,0-12.28-4.32-12.28-11.59,0-6.67,4.36-11.29,11.17-11.29,6.29,0,10.18,4.06,10.18,9.97,0,1.33-.17,2.31-.34,2.99Zm-13.26-3.21h6.67v-.13c0-1.92-1.2-3.04-3.21-3.04s-3.21,1.15-3.47,3.17Z"/><path class="cls-2" d="m200.12,163.38c0-2.74,2.01-4.36,4.62-4.36s4.66,1.63,4.66,4.36-1.97,4.32-4.66,4.32-4.62-1.5-4.62-4.32Zm.34,6.55h8.56v21.52h-8.56v-21.52Z"/><path class="cls-2" d="m227.93,169.5v7.83c-.47-.26-1.24-.43-2.27-.43-2.14,0-3.76,1.28-3.76,4.02v10.52h-8.56v-21.52h7.87v5.65c.81-4.11,2.82-6.33,5.18-6.33.68,0,1.24.13,1.54.26Z"/><path class="cls-2" d="m92.57,210.69v32.08h-7.87v-3.34c-1.15,2.61-3.08,4.02-5.95,4.02-5.39,0-9.28-4.79-9.28-11.34s3.89-11.55,9.28-11.55c2.61,0,4.45,1.11,5.6,3.17v-13.05h8.21Zm-7.66,21.26c0-2.35-1.45-3.89-3.55-3.89s-3.55,1.58-3.55,3.89,1.5,3.94,3.55,3.94,3.55-1.58,3.55-3.94Z"/><path class="cls-2" d="m96.5,214.71c0-2.74,2.01-4.36,4.62-4.36s4.66,1.63,4.66,4.36-1.97,4.32-4.66,4.32-4.62-1.5-4.62-4.32Zm.34,6.55h8.56v21.52h-8.56v-21.52Z"/><path class="cls-2" d="m135.56,219.8v1.45h4.15v7.4h-4.15v11.55c0,6.46-3.12,10.48-8.81,10.48-1.37,0-2.65-.26-3.38-.56l.04-7.7c.34.13.77.21,1.28.21,1.75,0,2.18-1.2,2.18-2.99v-10.99h-7.06v12.83c0,6.46-3.08,10.48-8.77,10.48-1.37,0-2.65-.26-3.38-.56v-7.7c.39.13.81.21,1.28.21,1.75,0,2.22-1.2,2.22-2.99v-12.28h-2.7v-7.4h2.7v-1.45c0-5.82,3.29-9.16,9.33-9.16,1.63,0,2.7.13,3.47.34v6.55c-.34-.09-.81-.17-1.46-.17-1.88,0-2.7,1.07-2.7,2.95v.94h7.06v-1.97c0-5.82,3.29-9.15,9.33-9.15,1.62,0,2.69.13,3.51.34v6.55c-.34-.09-.86-.17-1.45-.17-1.88,0-2.69,1.07-2.69,2.95Z"/><path class="cls-2" d="m162.12,233.53h-13.05c.6,2.4,2.35,3.04,5.77,3.04,2.82,0,5.18-.73,6.5-1.5v6.59c-1.58,1.07-4.92,1.8-7.96,1.8-7.7,0-12.28-4.32-12.28-11.59,0-6.67,4.36-11.29,11.17-11.29,6.29,0,10.18,4.06,10.18,9.97,0,1.33-.17,2.31-.34,2.99Zm-13.26-3.21h6.67v-.13c0-1.92-1.2-3.04-3.21-3.04s-3.21,1.15-3.46,3.17Z"/><path class="cls-2" d="m180.34,220.83v7.83c-.47-.26-1.24-.43-2.27-.43-2.14,0-3.76,1.28-3.76,4.02v10.52h-8.56v-21.52h7.87v5.65c.81-4.11,2.82-6.33,5.18-6.33.68,0,1.24.13,1.54.26Z"/><path class="cls-2" d="m203.27,233.53h-13.05c.6,2.4,2.35,3.04,5.77,3.04,2.82,0,5.18-.73,6.5-1.5v6.59c-1.58,1.07-4.92,1.8-7.96,1.8-7.7,0-12.28-4.32-12.28-11.59,0-6.67,4.36-11.29,11.17-11.29,6.29,0,10.18,4.06,10.18,9.97,0,1.33-.17,2.31-.34,2.99Zm-13.26-3.21h6.67v-.13c0-1.92-1.2-3.04-3.21-3.04s-3.21,1.15-3.46,3.17Z"/><path class="cls-2" d="m229.11,228.49v14.29h-8.56v-11.89c0-2.01-.86-3.29-2.44-3.29-1.67,0-2.65,1.37-2.65,3.42v11.76h-8.56v-21.52h8.04v4.36c1.16-3.08,3.81-5.05,7.14-5.05,4.11,0,7.02,2.91,7.02,7.91Z"/><path class="cls-2" d="m232.19,231.99c0-6.42,4.41-11.42,11.51-11.42,1.92,0,3.55.34,4.71.9l-.09,7.66c-.68-.43-1.54-.9-3.08-.9-2.82,0-4.19,1.67-4.19,3.76,0,2.27,1.41,3.81,4.19,3.81,1.5,0,2.4-.47,3.08-.86l.09,7.57c-1.07.51-2.91.94-4.83.94-7.06,0-11.38-5.01-11.38-11.46Z"/><path class="cls-2" d="m271.8,233.53h-13.05c.6,2.4,2.35,3.04,5.78,3.04,2.82,0,5.18-.73,6.5-1.5v6.59c-1.58,1.07-4.92,1.8-7.96,1.8-7.7,0-12.28-4.32-12.28-11.59,0-6.67,4.36-11.29,11.17-11.29,6.29,0,10.18,4.06,10.18,9.97,0,1.33-.17,2.31-.34,2.99Zm-13.26-3.21h6.67v-.13c0-1.92-1.2-3.04-3.21-3.04s-3.21,1.15-3.47,3.17Z"/><path class="cls-2" d="m275.22,241.79v-5.77c.9.81,2.78,1.45,4.32,1.45,2.18,0,3.08-.68,3.08-1.67,0-.6-.3-.98-1.28-1.41l-1.75-.77c-2.87-1.28-4.45-3.04-4.45-6.07,0-3.98,3.38-6.97,9.15-6.97,2.18,0,4.15.47,5.09,1.03v5.73c-.86-.51-2.1-.98-3.46-.98-1.67,0-2.61.56-2.61,1.37,0,.68.34,1.07,1.24,1.45l1.58.69c3.08,1.41,4.41,3.08,4.41,5.99,0,4.58-3.38,7.61-9.11,7.61-2.74,0-5.09-.77-6.2-1.67Z"/></svg>