<?xml version="1.0" encoding="utf-8"?>
<!-- Generator: Adobe Illustrator 27.3.1, SVG Export Plug-In . SVG Version: 6.00 Build 0)  -->
<svg version="1.1" id="Layer_1" xmlns="http://www.w3.org/2000/svg" xmlns:xlink="http://www.w3.org/1999/xlink" x="0px" y="0px"
	 viewBox="0 0 2001.6 1583.6" style="enable-background:new 0 0 2001.6 1583.6;" xml:space="preserve">
<style type="text/css">
	.st0{fill:#E17284;}
	.st1{fill:#F5C645;}
	.st2{fill:#E16534;}
</style>
<path class="st0" d="M2001.6,1078.8v103.1c-16.7,8.8-34.9,16.3-56.7,23.9c-80.1,28-169.8,46.5-259.3,53.3c-26,2-51.8,3-77.2,3
	c-66.3,0-130.2-6.7-187.8-19.8c-81.6-18.6-157.7-52.1-226.3-99.6c-64.1-44.4-123.4-102.2-176.3-171.9
	c-73.2-96.5-117.7-208.9-160.7-317.6c-15.2-38.4-30.9-78.1-47.5-116c-35-79.9-72.3-144-114.2-195.9c-49.2-61-104.7-104-164.9-127.7
	c-95.9-37.7-201.7-28.3-313.8-18.4c-70.9,6.3-144.2,12.8-216.9,7v-86.3c67.6,6.2,139.6-0.1,209.3-6.3
	c117.1-10.4,238.1-21.1,352.9,24c74.2,29.2,141.7,80.9,200.4,153.7c46.7,57.9,87.9,128.4,126,215.4c17.2,39.3,33.2,79.7,48.7,118.8
	c42.7,108,83.1,210.1,149.2,297.3c47.4,62.4,100.1,114,156.7,153.1c59.5,41.2,125.7,70.3,196.5,86.4c142,32.4,324.7,19.5,476.8-33.8
	C1954,1111.4,1975.3,1100.5,2001.6,1078.8z"/>
<path class="st1" d="M2001.6,1143.4v110.1c-23.6,15.3-48.2,26.5-80.9,37.9c-82,28.7-166.5,46.4-250.9,52.6
	c-22.4,1.6-44.7,2.5-66.8,2.5c-64.8,0-128.3-7-189.5-21c-85.3-19.5-165.9-52.5-239.5-98.3c-76-47.2-140.7-105.7-192.4-173.9
	c-74.2-97.8-119.3-211.8-162.8-321.9c-15.4-38.9-31.3-79.2-48.1-117.6c-35.5-81.1-73.4-146.1-115.9-198.7
	c-50-62-106.3-105.6-167.5-129.6c-97.3-38.3-204.7-28.7-318.4-18.6c-55.3,4.9-112,9.9-168.8,9.3v-86c53.1,0.6,107.8-4.2,161.2-9
	c118.6-10.5,241.3-21.4,357.5,24.3c75.2,29.6,143.5,81.9,202.9,155.7c47.4,58.7,89.1,130.1,127.7,218.3
	c17.4,39.9,33.7,80.8,49.3,120.5c43.3,109.6,84.3,213.1,151.4,301.6c45.3,59.7,102.3,111.1,169.3,152.8
	c65.4,40.7,137.2,70.1,213.2,87.5c73.8,16.8,151.5,22.4,230.9,16.6c76.9-5.6,153.9-21.8,228.8-48
	C1940.6,1193.3,1962.5,1180,2001.6,1143.4z"/>
<path class="st2" d="M2001.6,1243.2v98.4c-12.4,5.7-25.9,11-41.1,16.3c-74.4,26.1-162.3,54.8-262.5,65.2
	c-27.3,2.8-54.7,4.3-82.2,4.3c-85,0-171.8-13.6-263.1-41c-191.9-57.7-336.3-149.1-429.1-271.4c-74.2-97.8-119.3-211.7-162.8-321.9
	c-15.4-38.9-31.3-79.2-48.1-117.6c-35.5-81.1-73.4-146.1-115.9-198.7c-50-62-106.3-105.6-167.5-129.6
	c-97.3-38.3-204.7-28.7-318.4-18.6c-36.5,3.2-73.6,6.5-110.9,8.2v-86.1c34.5-1.7,69.2-4.8,103.3-7.8
	c118.6-10.5,241.3-21.4,357.5,24.3c75.2,29.6,143.5,81.9,202.9,155.7c47.3,58.7,89.1,130.1,127.7,218.3
	c17.4,39.9,33.6,80.8,49.3,120.5c43.3,109.6,84.3,213.1,151.4,301.6c81.6,107.5,211.3,188.6,385.4,241c109.7,33,211.7,44,311.6,33.6
	c91-9.5,169.9-35.2,243-60.8C1961.9,1266.3,1981.7,1257.2,2001.6,1243.2z"/>
</svg>
