<?xml version="1.0" encoding="UTF-8"?>
<svg id="Layer_1" data-name="Layer 1" xmlns="http://www.w3.org/2000/svg" viewBox="0 0 612 668.15">
  <defs>
    <style>
      .cls-1 {
        fill: #fff;
      }
    </style>
  </defs>
  <path class="cls-1" d="m72.97,254.24c.94-11.17,1.93-22.73,2.63-28.21l.11-.92.9-.23c2.1-.52,4.75-1.17,7.99-1.82.81-.16,1.91-.36,3.19-.6,4.36-.79,10.93-1.98,17.15-3.38,9.71-2.23,14.35-4.88,14.69-5.8-.41-5.44-15.32-9.73-19.03-9.73-4.76,0-11.75,1.32-17.92,2.62l-1.08.23c-6.7,1.48-14.3,3.15-22.19,4.25-3.19.5-3.44,3.15-3.32,4.66.15,1.09.58,2.11,1.05,3.21.45,1.06.92,2.14,1.1,3.33v.18s-.08.78-.08.78c-1.11,8.59-2.03,17.4-2.73,26.18-1.52,20.01-1.46,36.64.16,49.39.9,7.89,3.08,18.64,8.32,25.14,3.15,4.04,7.83,4.47,9.71,4.47,2.57,0,5.38-.88,8.08-1.73,1.37-.43,2.8-.88,4.18-1.21.56-.16,1.39-.37,2.4-.63,12.32-3.09,26.87-7.7,26.38-11.97-.39-2.02-12.62-6.92-18.53-6.92-3.06,0-8.25,1.23-12.9,2.43l-1.02.31c-2.47.74-4.81,1.42-7.19,1.87l-.99.18-.47-.9c-.36-.74-.43-1.6-.52-2.81-.04-.36-.07-.74-.11-1.13-.14-2.13-.41-4.76-.83-8.09-.07-.68-.1-1.28-.14-1.8-.05-.63-.07-1.15-.16-1.59l-.25-1.2,1.2-.35c1.57-.45,3.46-1.04,5.53-1.69,7.37-2.29,16.54-5.15,21.99-5.15h1.5c4.23,0,10.48-3.64,10.88-7.06-.45-2.27-9.44-8.63-19.74-8.63h-.4c-6.14.15-10.23,1.57-15.42,3.37-1.28.45-2.63.9-4.05,1.37l-1.96.65.2-2.05c.46-4.65,1.06-11.62,1.69-19.02Z"/>
  <path class="cls-1" d="m207.12,253.24c-.89-7.01-10.19-30.96-14.01-33.38-1.28-.77-2.55-1.02-3.7-1.02-4.07,0-9.43,2.93-12.48,6.24-2.93,3.06-12.11,12.74-18.86,20.26-4.08-15.54-6.24-33.51-8.16-39.75-.89-3.06-3.43-4.72-6.24-4.72-3.69,0-7.51,2.55-10.19,5.74-3.82,4.71-27.65,50.32-28.54,54.78v.9c.25,2.67,3.31,4.2,6.24,4.2,1.91,0,5.35-.64,6.5-2.68,3.82-6.49,11.21-20.76,19.24-32.74,1.02,5.35,5.22,28.29,7.9,31.09,2.16,2.16,5.99,3.31,9.17,3.31,2.42,0,5.23-.64,7.01-2.8,3.82-4.59,17.2-20.01,22.42-24.08.51,1.4,1.28,3.57,2.17,5.86,1.66,4.58,3.57,10.32,5.86,15.41.89,2.3,3.57,2.55,4.33,2.55,3.19,0,10.45-3.05,11.34-6.62.26-.77.13-1.79,0-2.55Z"/>
  <path class="cls-1" d="m289.82,219.86c-.63-5.48-8.4-14.4-14.27-17.46-4.71-2.42-15.16-3.18-25.1-3.18-13.5,0-30.32,1.53-33.63,4.58-2.55,2.3-3.32,37.97-.77,58.1.51,4.59,1.28,8.67,2.3,11.72,1.02,3.06,6.75,9.31,10.95,9.43h1.15c12.36,0,31.73-8.02,30.2-20.89-.51-3.57-6.88-8.67-12.49-11.98,23.32-6.63,42.56-23.32,41.66-30.32Zm-58.61,51.22l.26-.64c.13-1.15.38-2.93.13-4.84-.39-3.31-.77-7.01-.9-9.56,5.87.77,11.85,5.61,12.11,7.01.51,3.95-6.63,7.52-11.6,8.03Zm-.51-30.07c-.25-6.63-.63-21.28-.25-27.01,8.79-1.28,18.09-2.17,25.99-2.17,8.41,0,15.04-.38,15.55,2.8,1.01,6.25-24.34,23.57-41.29,26.38Z"/>
  <path class="cls-1" d="m366.02,225.59c-.89-7.13-11.08-12.99-19.11-15.54-4.71-1.53-14.78-2.68-26.63-2.68-6.88,0-14.4.38-22.04,1.27-2.04.26-5.1,18.86-4.59,31.98.13,2.81.26,5.61.64,8.29,1.15,9.42,3.57,18.47,6.11,22.17,2.17,2.93,5.61,3.95,8.29,3.95s6.88-1.28,6.37-5.1c-.26-1.91-1.91-7.14-2.81-11.21,5.74,2.67,10.96,6.5,16.31,9.81,3.44,2.04,6.76,4.33,10.71,4.33,4.2,0,9.04-2.8,8.79-5.48-.26-1.53-1.28-2.55-2.3-3.18-6.75-3.95-14.14-7.9-19.75-11.34,8.92-2.93,41.41-15.29,40.01-27.27Zm-55.04,17.96c-.51-8.02.51-18.21,2.17-24.59,3.44-.25,7-.38,10.57-.38,11.98,0,22.04,1.66,24.46,3.7.26,5.73-25.73,17.71-37.2,21.27Z"/>
  <path class="cls-1" d="m448.61,309.51c-1.4-11.47-31.74-99.97-39.9-109.15-1.91-2.16-5.09-2.8-7.77-2.8-3.31,0-7.26.89-10.57,3.06-3.06,2.04-34.79,70.33-34.02,83.96.12,2.3,2.29,3.7,4.84,3.7,2.29,0,6.5-1.28,7.64-3.06.51-.76,1.28-2.29,2.17-4.33,3.18-7.9,5.86-16.06,9.68-23.7,4.72-.64,20.64-2.68,31.98-5.86,1.02,3.44,18.24,58.18,20.03,60.48,1.91,2.67,6.62,4.2,9.81,4.2,4.71,0,6.62-2.29,6.11-6.5Zm-62.32-67.74c4.97-12.87,10.57-25.86,12.87-29.3,1.91,3.82,6.75,17.45,9.04,23.82-4.2.38-11.59,1.79-21.91,5.48Z"/>
  <path class="cls-1" d="m495.61,252.22c-.38-3.7-3.31-6.24-6.62-6.24-1.66,0-3.19.63-4.08,2.03-3.95,5.86-19.37,15.42-25.99,15.42-1.15,0-2.42-1.78-2.55-2.67-2.68-22.43,29.69-52.12,35.67-53.9,1.79-.51,3.32-1.91,3.06-4.08-.51-3.82-5.86-6.37-9.56-6.37-24.97,0-47.65,43.58-45.35,61.54,1.27,10.96,10.32,18.61,21.91,18.61,2.04,0,3.82-.39,5.48-.9,8.92-3.18,29.18-14.78,28.03-23.44Z"/>
  <path class="cls-1" d="m529.89,207.37c2.68-.51,9.43-1.66,15.67-3.06,6.63-1.53,12.24-3.82,12.11-5.48-.38-5.22-12.74-8.53-15.67-8.53-3.57,0-8.54.89-14.02,2.03-5.22,1.15-11.47,2.55-17.84,3.45-3.18.51-3.57,3.18-3.44,4.71.26,1.91,1.41,3.44,1.66,5.1-.13,1.02-1.28,9.43-2.17,20.64-.89,11.72-1.4,26.24.13,38.22.89,7.77,2.93,15.29,6.63,19.88,2.29,2.93,5.73,3.82,8.28,3.82,3.18,0,6.5-1.53,9.68-2.29,4.21-1.15,23.57-5.36,22.94-10.83-.26-2.55-11.09-6.25-15.29-6.25-2.55,0-6.76,1.02-10.2,1.91-2.16.64-4.2,1.28-6.24,1.66-.26-.51-.26-1.4-.38-2.67-.13-1.92-.39-4.21-.64-6.25-.13-1.14-.13-2.04-.25-2.67,5.35-1.53,15.67-5.23,20.89-5.23h1.15c3.57,0,9.17-3.06,9.43-6.5-.26-2.67-8.41-7.77-16.57-7.64-6.11.13-9.81,1.91-15.29,3.69.89-8.92,2.42-29.3,3.32-36.31,1.53-.38,3.56-.89,6.11-1.4Z"/>
  <path class="cls-1" d="m177.11,334.26h.01c3.57-4.26,23.18-37.23,22.55-43.03-.46-3.38-4.12-4.61-6.46-4.61-2.55,0-5.1,1-7.17,2.83-2.89,2.49-7.7,10.06-12.04,17.13-.93,1.47-1.83,2.91-2.69,4.29-1.19,1.91-2.32,3.71-3.29,5.18-.67,1.07-1.38,2.21-2.1,3.21l-.67.95-.75-.89c-1.69-2-3.72-4.54-5.87-7.23-5.46-6.82-12.25-15.3-17.78-20.44-.21-.18-.53-.27-.9-.27-.51,0-1.13.17-1.73.5-1.2.65-2.51,2.08-2.24,3.98.37,3.45,18.33,26.93,24.21,33.95l.2.25v.31c.04,1.3.06,3.6.09,6.51.11,10.95.32,31.33,1.3,38.76.29,2.41,1.1,3.97,1.47,4.27,2.55,2.04,7.36,5.08,10.13,5.08,1.38,0,2.41-.51,3.14-1.56,1.27-1.81.71-16.89.31-27.91-.54-14.51-.66-20.1.28-21.26Z"/>
  <path class="cls-1" d="m249.48,330.31c-.05-.52-.1-1.02-.14-1.51-2-16.41-12.28-18.17-15.38-18.32h-.32s-.24-.23-.24-.23c-2.66-2.4-6.15-2.68-8.55-2.68-6.72,0-12.82,2.87-17.62,8.3-7.44,8.4-9.85,20.12-8.96,27.45,1.31,10.46,10.57,21.27,23.8,21.27,6.04,0,12.34-3,17.75-8.46,6.19-6.26,10-14.63,9.93-21.84,0-1.35-.13-2.69-.27-3.98Zm-19.57,11.1c-2.5,3.82-9.74,8.47-14.63,8.47-3.26,0-3.96-2.15-4.23-4.25-.61-4.62,2.09-11.29,6.74-16.6,4.06-4.64,8.81-7.31,13.02-7.31.89,0,2.2.11,3.41.63l.55.24v.73c.42,3.77-1.78,13.11-4.86,18.09Z"/>
  <path class="cls-1" d="m328.98,305.53c-.45-4.04-1.22-7.12-6.6-7.12-4.27,0-9.78,2.46-9.78,5.07-.4,23.29-17.85,60.54-31.83,60.69-1.19,0-1.4-1.14-1.58-2.06-.04-.22-.08-.46-.14-.72-.39-1.25-.58-2.85-.79-4.7-.1-.82-.2-1.68-.33-2.59-1.08-9.38-.39-24.01,4.75-37.02.09-.41.09-.83.1-1.18-.56-3.26-8.25-6.81-11.31-6.81-.57,0-2.48.12-3.22,1.59-6.48,11.63-7.35,27.56-6.02,38.61,1.05,7.89,3.1,14.23,5.95,18.32,3.95,5.79,13.7,6.41,17.71,6.41,2.24,0,4.25-.14,5.67-.4h.01c8.88-1.57,19-11.82,27.06-27.41,7.54-14.57,11.6-30.54,10.35-40.68Z"/>
  <path class="cls-1" d="m540.02,372.4c-7.81-8.15-17.18-11.7-29.39-11.2-37.66,1.59-86.65,27.72-95.17,36.4-2.86,2.95-3.35,9.13-2.58,13.94.6,3.86,2.18,7.42,4.04,9.13,9.06,8.61,31.54,12.05,47.96,14.57,5.62.87,10.95,1.68,15.11,2.58,1.73.31,3.77.63,4.92.77l.41.06c.6,0,1.53.14,2.38.9l1.21,1.11-.22,1.63c-.5,3.81-5.11,5.74-23.09,11.7-8.62,2.87-23.07,7.68-24.73,10.25-.5.92-.54,1.26-.54,1.33.53,2.67,13.06,8.14,20.75,7.84,7.35-.31,40.94-16.57,47.24-22.14,1.82-1.46,2.36-3.18,1.93-5.69-.99-6.82-9.89-14.8-12.79-16.35-6.05-3.33-42.65-9.42-54.68-11.42l-2.68-.45c-3.57-.51-6.29-1.03-8.25-1.59l-4.84-1.4,3.36-3.75c11.1-12.3,60.5-33.23,86.89-34.34,4.64-.2,8.25.34,10.71,1.62.92.52,2.18.74,3.62.66,1.98-.09,4.18-.91,5.95-1.91,1.74-.99,3.06-2.14,3.29-2.86-.12-.41-.39-.86-.81-1.39Z"/>
  <path class="cls-1" d="m415.55,322.73c-.87-6.98-11.08-13.28-20.19-16.17-5.37-1.75-16.65-2.87-28.72-2.87-7.96,0-15.95.46-23.76,1.36-1.71,1.67-4.89,19.63-4.34,33.91.14,3.01.28,6.07.69,8.93,1.27,10.4,3.88,19.94,6.51,23.75,2.68,3.63,7.01,3.91,8.28,3.91,1.69,0,4.1-.49,5.32-1.88.62-.72.86-1.58.72-2.65-.14-1.04-.73-3.2-1.35-5.48-.57-2.12-1.23-4.54-1.69-6.65l-.39-1.78,1.65.77c4.51,2.1,8.76,4.87,12.87,7.54,1.63,1.06,3.32,2.16,4.98,3.19.4.24.81.48,1.22.73,3.28,1.98,6.38,3.85,9.96,3.85,2.86,0,6.23-1.34,7.85-3.12.41-.46.89-1.15.83-1.86-.19-1.08-.89-2.04-2.08-2.79-3.06-1.79-6.29-3.6-9.41-5.36-4.39-2.47-8.54-4.8-12.09-6.98l-1.66-1.02,1.85-.6c12.4-4.08,44.3-17.19,42.95-28.73Zm-58.77,20.31l-1.09.34-.08-1.14c-.53-8.47.45-19.59,2.39-27.06l.16-.62.64-.05c3.75-.28,7.65-.42,11.58-.42,12.86,0,24.31,1.78,27.22,4.24l.3.25.02.4c.34,7.65-31.44,21.05-41.14,24.06Z"/>
  <path class="cls-1" d="m134.88,441.92c-.38-3.7-3.31-6.24-6.62-6.24-1.66,0-3.19.63-4.08,2.03-3.95,5.86-19.37,15.42-25.99,15.42-1.15,0-2.43-1.78-2.55-2.67-2.68-22.43,29.68-52.12,35.67-53.9,1.79-.51,3.32-1.91,3.06-4.08-.51-3.82-5.86-6.37-9.56-6.37-24.97,0-47.65,43.58-45.35,61.54,1.27,10.96,10.32,18.6,21.91,18.6,2.04,0,3.82-.38,5.48-.89,8.92-3.18,29.18-14.78,28.03-23.44Z"/>
  <path class="cls-1" d="m204.65,399.49c-.38-3.44-1.02-7.26-6.88-7.26-3.95,0-9.81,2.29-9.81,5.47-.38,22.3-16.82,54.79-28.41,54.92-.51,0-.51-.76-.77-1.91-.51-1.66-.64-3.95-1.02-6.63-1.02-8.92-.25-22.04,4.34-33.63.12-.51.12-1.02.12-1.4-.51-3.57-8.15-7.01-11.21-7.01-1.15,0-2.93.38-3.69,1.91-5.61,10.06-7.01,24.34-5.61,35.93.89,6.75,2.67,13,5.61,17.2,3.56,5.22,11.97,6.24,16.94,6.24,2.04,0,3.95-.12,5.35-.38,18.73-3.31,37.46-43.83,35.04-63.45Z"/>
  <path class="cls-1" d="m284.35,414.41c-1.07-7.11-11.4-12.72-19.49-15.07-4.75-1.42-14.84-2.32-26.69-2.03-6.87.17-14.38.73-22,1.81-2.03.31-4.63,18.98-3.81,32.08.2,2.8.4,5.6.84,8.27,1.38,9.39,4.02,18.38,6.65,22.01,2.24,2.88,5.71,3.81,8.38,3.75,2.8-.07,6.85-1.44,6.25-5.25-.31-1.91-2.09-7.09-3.08-11.14,5.8,2.53,11.11,6.23,16.54,9.41,3.49,1.95,6.86,4.17,10.81,4.07,4.2-.1,8.97-3.02,8.65-5.69-.29-1.53-1.33-2.52-2.37-3.13-6.84-3.78-14.33-7.55-20.02-10.86,8.85-3.14,41.03-16.29,39.34-28.23Zm-54.59,19.3c-.71-8.01.06-18.22,1.57-24.63,3.43-.34,6.99-.56,10.56-.64,11.97-.29,22.07,1.12,24.54,3.1.4,5.72-25.3,18.33-36.67,22.17Z"/>
  <path class="cls-1" d="m361.87,396.81c-.25-2.03-2.29-3.44-4.96-3.44-2.17,0-5.61.9-7.14,2.42-4.71,4.59-10.7,14.66-15.93,24.72-4.07,7.65-7.9,15.67-10.83,21.41-5.6-9.81-14.01-25.99-19.24-41.41-1.27-3.95-5.35-4.84-7.9-4.84-3.18,0-7.51,1.14-8.92,3.57-.63,1.14-.63,2.42-.5,3.31,1.14,9.17,19.49,41.92,28.79,58.61,1.02,1.78,2.8,2.67,4.59,2.67,3.95,0,9.94-5.86,11.34-7.64,1.02-1.4,1.65-3.19,2.04-4.46.25-.77.25-1.79.63-2.42.64-1.28,21.41-40.14,27.4-50.07.51-.51.76-1.41.63-2.43Z"/>
  <path class="cls-1" d="m390.64,397.07c2.68-.51,9.43-1.66,15.68-3.06,6.62-1.53,12.23-3.82,12.1-5.48-.38-5.22-12.74-8.53-15.67-8.53-3.57,0-8.54.89-14.02,2.03-5.22,1.15-11.46,2.55-17.84,3.44-3.18.51-3.56,3.19-3.43,4.72.25,1.91,1.4,3.44,1.65,5.09-.13,1.03-1.27,9.43-2.16,20.65-.9,11.72-1.41,26.24.12,38.22.89,7.77,2.93,15.29,6.63,19.87,2.29,2.94,5.73,3.83,8.28,3.83,3.19,0,6.5-1.53,9.68-2.3,4.21-1.14,23.57-5.35,22.94-10.83-.26-2.54-11.09-6.24-15.29-6.24-2.55,0-6.75,1.02-10.19,1.91-2.17.64-4.21,1.28-6.25,1.66-.25-.51-.25-1.4-.38-2.68-.13-1.91-.38-4.2-.64-6.24-.12-1.15-.12-2.04-.25-2.67,5.35-1.53,15.67-5.23,20.89-5.23h1.15c3.57,0,9.17-3.06,9.43-6.5-.26-2.67-8.41-7.77-16.56-7.64-6.12.13-9.82,1.91-15.3,3.69.9-8.92,2.42-29.3,3.32-36.31,1.53-.38,3.56-.89,6.11-1.4Z"/>
</svg>